# Blender v2.80 (sub 74) OBJ File: ''
# www.blender.org
mtllib chamfered_stud.mtl
o ChamferedStud_squarebase
v -0.003000 0.003000 0.000000
v 0.003000 0.003000 0.000000
v -0.003000 -0.003000 0.000000
v 0.003000 -0.003000 0.000000
v -0.003000 0.003000 0.000500
v 0.003000 0.003000 0.000500
v -0.003000 -0.003000 0.000500
v 0.003000 -0.003000 0.000500
v -0.001368 0.001368 0.004000
v 0.001368 0.001368 0.004000
v -0.001368 -0.001368 0.004000
v 0.001368 -0.001368 0.004000
vn -1.0000 0.0000 0.0000
vn 0.0000 1.0000 0.0000
vn 0.0000 0.0000 -1.0000
vn 1.0000 -0.0000 0.0000
vn 0.0000 -1.0000 0.0000
vn 0.0000 0.9063 0.4226
vn -0.9063 0.0000 0.4226
vn 0.9063 0.0000 0.4226
vn 0.0000 -0.9063 0.4226
vn 0.0000 0.0000 1.0000
usemtl None
s off
f 3//1 5//1 1//1
f 6//2 2//2 1//2
f 5//2 6//2 1//2
f 2//3 4//3 1//3
f 4//3 3//3 1//3
f 8//4 4//4 2//4
f 6//4 8//4 2//4
f 7//1 5//1 3//1
f 4//5 7//5 3//5
f 8//5 7//5 4//5
f 9//6 10//6 5//6
f 10//6 6//6 5//6
f 7//7 9//7 5//7
f 10//8 12//8 6//8
f 12//8 8//8 6//8
f 8//9 11//9 7//9
f 11//7 9//7 7//7
f 12//9 11//9 8//9
f 12//10 10//10 9//10
f 11//10 12//10 9//10
