# Blender v2.80 (sub 74) OBJ File: ''
# www.blender.org
mtllib legoSingleUnitColor.mtl
o single_lego_unit
v -0.016000 0.016000 0.000000
v 0.016000 0.016000 0.000000
v -0.012250 0.012250 0.000000
v -0.003750 0.012250 0.000000
v 0.003750 0.012250 0.000000
v 0.012250 0.012250 0.000000
v -0.012250 0.003750 0.000000
v -0.003750 0.003750 0.000000
v 0.003750 0.003750 0.000000
v 0.012250 0.003750 0.000000
v -0.012250 -0.003750 -0.000000
v -0.003750 -0.003750 -0.000000
v 0.003750 -0.003750 -0.000000
v 0.012250 -0.003750 -0.000000
v -0.012250 -0.012250 -0.000000
v -0.003750 -0.012250 -0.000000
v 0.003750 -0.012250 -0.000000
v 0.012250 -0.012250 -0.000000
v -0.016000 -0.016000 -0.000000
v 0.016000 -0.016000 -0.000000
v -0.012250 0.012250 0.005000
v -0.003750 0.012250 0.005000
v 0.003750 0.012250 0.005000
v 0.012250 0.012250 0.005000
v -0.012250 0.003750 0.005000
v -0.003750 0.003750 0.005000
v 0.003750 0.003750 0.005000
v 0.012250 0.003750 0.005000
v -0.012250 -0.003750 0.005000
v -0.003750 -0.003750 0.005000
v 0.003750 -0.003750 0.005000
v 0.012250 -0.003750 0.005000
v -0.012250 -0.012250 0.005000
v -0.003750 -0.012250 0.005000
v 0.003750 -0.012250 0.005000
v 0.012250 -0.012250 0.005000
v -0.016000 0.016000 0.020000
v 0.016000 0.016000 0.020000
v -0.012000 0.012000 0.020000
v -0.004000 0.012000 0.020000
v 0.004000 0.012000 0.020000
v 0.012000 0.012000 0.020000
v -0.012000 0.004000 0.020000
v -0.004000 0.004000 0.020000
v 0.004000 0.004000 0.020000
v 0.012000 0.004000 0.020000
v -0.012000 -0.004000 0.020000
v -0.004000 -0.004000 0.020000
v 0.004000 -0.004000 0.020000
v 0.012000 -0.004000 0.020000
v -0.012000 -0.012000 0.020000
v -0.004000 -0.012000 0.020000
v 0.004000 -0.012000 0.020000
v 0.012000 -0.012000 0.020000
v -0.016000 -0.016000 0.020000
v 0.016000 -0.016000 0.020000
v -0.012000 0.012000 0.024000
v -0.004000 0.012000 0.024000
v 0.004000 0.012000 0.024000
v 0.012000 0.012000 0.024000
v -0.012000 0.004000 0.024000
v -0.004000 0.004000 0.024000
v 0.004000 0.004000 0.024000
v 0.012000 0.004000 0.024000
v -0.012000 -0.004000 0.024000
v -0.004000 -0.004000 0.024000
v 0.004000 -0.004000 0.024000
v 0.012000 -0.004000 0.024000
v -0.012000 -0.012000 0.024000
v -0.004000 -0.012000 0.024000
v 0.004000 -0.012000 0.024000
v 0.012000 -0.012000 0.024000
vn 0.0000 0.0000 -1.0000
vn 0.0000 1.0000 0.0000
vn -1.0000 -0.0000 0.0000
vn 1.0000 0.0000 0.0000
vn 0.0000 -1.0000 0.0000
vn 0.0000 0.0000 1.0000
usemtl Material.002
s off
f 4//1 3//1 1//1
f 3//1 7//1 1//1
f 11//1 19//1 1//1
f 7//1 11//1 1//1
f 2//1 4//1 1//1
f 37//2 38//2 1//2
f 38//2 2//2 1//2
f 19//3 37//3 1//3
f 10//1 6//1 2//1
f 6//1 5//1 2//1
f 20//1 10//1 2//1
f 5//1 4//1 2//1
f 38//4 56//4 2//4
f 56//4 20//4 2//4
f 4//5 21//5 3//5
f 21//4 25//4 3//4
f 25//4 7//4 3//4
f 5//1 8//1 4//1
f 8//3 22//3 4//3
f 22//5 21//5 4//5
f 9//1 8//1 5//1
f 6//5 23//5 5//5
f 23//4 27//4 5//4
f 27//4 9//4 5//4
f 10//3 24//3 6//3
f 24//5 23//5 6//5
f 14//1 13//1 7//1
f 8//1 14//1 7//1
f 12//1 11//1 7//1
f 13//1 12//1 7//1
f 25//2 26//2 7//2
f 26//2 8//2 7//2
f 9//1 14//1 8//1
f 26//3 22//3 8//3
f 10//1 14//1 9//1
f 27//2 28//2 9//2
f 28//2 10//2 9//2
f 20//1 14//1 10//1
f 28//3 24//3 10//3
f 15//1 19//1 11//1
f 12//5 29//5 11//5
f 29//4 33//4 11//4
f 33//4 15//4 11//4
f 13//1 16//1 12//1
f 30//5 29//5 12//5
f 16//3 30//3 12//3
f 17//1 16//1 13//1
f 14//5 31//5 13//5
f 31//4 35//4 13//4
f 35//4 17//4 13//4
f 20//1 18//1 14//1
f 32//5 31//5 14//5
f 18//3 32//3 14//3
f 16//1 19//1 15//1
f 33//2 34//2 15//2
f 34//2 16//2 15//2
f 17//1 19//1 16//1
f 34//3 30//3 16//3
f 20//1 19//1 17//1
f 18//1 20//1 17//1
f 35//2 36//2 17//2
f 36//2 18//2 17//2
f 36//3 32//3 18//3
f 55//3 37//3 19//3
f 20//5 55//5 19//5
f 56//5 55//5 20//5
f 22//1 25//1 21//1
f 26//1 25//1 22//1
f 24//1 27//1 23//1
f 28//1 27//1 24//1
f 30//1 33//1 29//1
f 34//1 33//1 30//1
f 32//1 35//1 31//1
f 36//1 35//1 32//1
f 43//6 39//6 37//6
f 39//6 40//6 37//6
f 40//6 38//6 37//6
f 47//6 43//6 37//6
f 55//6 47//6 37//6
f 46//6 56//6 38//6
f 40//6 41//6 38//6
f 41//6 42//6 38//6
f 42//6 46//6 38//6
f 43//3 57//3 39//3
f 57//2 58//2 39//2
f 58//2 40//2 39//2
f 44//6 45//6 40//6
f 45//6 41//6 40//6
f 58//4 62//4 40//4
f 62//4 44//4 40//4
f 59//2 42//2 41//2
f 45//3 59//3 41//3
f 59//2 60//2 42//2
f 60//4 46//4 42//4
f 48//6 44//6 43//6
f 47//6 48//6 43//6
f 61//3 57//3 43//3
f 44//5 61//5 43//5
f 53//6 49//6 44//6
f 48//6 53//6 44//6
f 49//6 50//6 44//6
f 50//6 45//6 44//6
f 62//5 61//5 44//5
f 50//6 46//6 45//6
f 63//3 59//3 45//3
f 46//5 64//5 45//5
f 64//5 63//5 45//5
f 50//6 56//6 46//6
f 60//4 64//4 46//4
f 55//6 51//6 47//6
f 65//2 66//2 47//2
f 66//2 48//2 47//2
f 51//3 65//3 47//3
f 52//6 53//6 48//6
f 66//4 70//4 48//4
f 70//4 52//4 48//4
f 53//3 67//3 49//3
f 67//2 50//2 49//2
f 54//6 56//6 50//6
f 67//2 68//2 50//2
f 68//4 54//4 50//4
f 55//6 52//6 51//6
f 69//3 65//3 51//3
f 52//5 69//5 51//5
f 56//6 53//6 52//6
f 55//6 56//6 52//6
f 70//5 69//5 52//5
f 56//6 54//6 53//6
f 54//5 72//5 53//5
f 72//5 71//5 53//5
f 71//3 67//3 53//3
f 68//4 72//4 54//4
f 61//6 58//6 57//6
f 61//6 62//6 58//6
f 64//6 60//6 59//6
f 63//6 64//6 59//6
f 69//6 70//6 65//6
f 70//6 66//6 65//6
f 71//6 68//6 67//6
f 71//6 72//6 68//6
